<?xml version="1.0" encoding="UTF-8"?>
<svg xmlns="http://www.w3.org/2000/svg" xmlns:xlink="http://www.w3.org/1999/xlink" viewBox="0 0 96 96" width="96px" height="96px">
<g id="surface118407677">
<path style=" stroke:none;fill-rule:nonzero;fill:#86C232;fill-opacity:1;" d="M 76 12 L 20 12 C 15.589844 12 12 15.589844 12 20 L 12 76 C 12 80.410156 15.589844 84 20 84 L 76 84 C 80.410156 84 84 80.410156 84 76 L 84 20 C 84 15.589844 80.410156 12 76 12 Z M 60 76 L 52 76 L 52 64 L 56 60 L 60 64 Z M 60 32 L 36 32 L 36 24 L 60 24 Z M 76 76 L 68 76 L 68 64 L 72 60 L 76 64 Z M 76 76 "/>
</g>
</svg>
