<?xml version="1.0" encoding="UTF-8"?>
<svg xmlns="http://www.w3.org/2000/svg" xmlns:xlink="http://www.w3.org/1999/xlink" viewBox="0 0 20 20" width="20px" height="20px">
<g id="surface120094569">
<path style=" stroke:none;fill-rule:nonzero;fill:rgb(94.901961%,94.901961%,94.901961%);fill-opacity:1;" d="M 16.625 4.726562 C 15.039062 3.449219 12.53125 3.234375 12.421875 3.226562 C 12.253906 3.210938 12.097656 3.308594 12.027344 3.460938 C 12.023438 3.46875 11.96875 3.597656 11.90625 3.792969 C 12.957031 3.96875 14.246094 4.324219 15.414062 5.050781 C 15.597656 5.164062 15.65625 5.410156 15.539062 5.597656 C 15.464844 5.71875 15.335938 5.785156 15.203125 5.785156 C 15.128906 5.785156 15.058594 5.765625 14.992188 5.726562 C 12.988281 4.484375 10.480469 4.421875 10 4.421875 C 9.519531 4.421875 7.011719 4.484375 5.007812 5.726562 C 4.820312 5.84375 4.578125 5.785156 4.460938 5.597656 C 4.34375 5.410156 4.402344 5.164062 4.589844 5.050781 C 5.753906 4.324219 7.042969 3.96875 8.09375 3.792969 C 8.03125 3.59375 7.976562 3.46875 7.972656 3.460938 C 7.902344 3.308594 7.746094 3.210938 7.578125 3.226562 C 7.472656 3.234375 4.960938 3.449219 3.351562 4.746094 C 2.511719 5.519531 0.832031 10.0625 0.832031 13.984375 C 0.832031 14.054688 0.851562 14.125 0.886719 14.183594 C 2.046875 16.21875 5.207031 16.753906 5.925781 16.777344 C 5.933594 16.777344 5.9375 16.777344 5.941406 16.777344 C 6.066406 16.777344 6.1875 16.714844 6.261719 16.613281 L 6.992188 15.609375 C 5.027344 15.101562 4.023438 14.238281 3.964844 14.1875 C 3.796875 14.042969 3.78125 13.789062 3.929688 13.625 C 4.074219 13.460938 4.324219 13.445312 4.488281 13.589844 C 4.515625 13.613281 6.363281 15.179688 10 15.179688 C 13.644531 15.179688 15.492188 13.605469 15.511719 13.589844 C 15.675781 13.445312 15.925781 13.460938 16.074219 13.625 C 16.21875 13.792969 16.203125 14.042969 16.039062 14.1875 C 15.980469 14.238281 14.976562 15.101562 13.007812 15.609375 L 13.738281 16.609375 C 13.8125 16.714844 13.933594 16.773438 14.0625 16.773438 C 14.066406 16.773438 14.070312 16.773438 14.074219 16.773438 C 14.792969 16.753906 17.957031 16.21875 19.113281 14.183594 C 19.148438 14.121094 19.167969 14.054688 19.167969 13.984375 C 19.167969 10.0625 17.488281 5.519531 16.625 4.726562 Z M 7.410156 12.390625 C 6.640625 12.390625 6.015625 11.675781 6.015625 10.796875 C 6.015625 9.917969 6.636719 9.203125 7.410156 9.203125 C 8.179688 9.203125 8.804688 9.917969 8.804688 10.796875 C 8.804688 11.675781 8.179688 12.390625 7.410156 12.390625 Z M 12.589844 12.390625 C 11.820312 12.390625 11.195312 11.675781 11.195312 10.796875 C 11.195312 9.917969 11.820312 9.203125 12.589844 9.203125 C 13.359375 9.203125 13.984375 9.917969 13.984375 10.796875 C 13.984375 11.675781 13.359375 12.390625 12.589844 12.390625 Z M 12.589844 12.390625 "/>
</g>
</svg>
