<?xml version="1.0" encoding="UTF-8"?>
<svg xmlns="http://www.w3.org/2000/svg" xmlns:xlink="http://www.w3.org/1999/xlink" viewBox="0 0 20 20" width="20px" height="20px">
<g id="surface120088494">
<path style=" stroke:none;fill-rule:nonzero;fill:rgb(94.901961%,94.901961%,94.901961%);fill-opacity:1;" d="M 14.167969 17.5 L 16.667969 17.5 C 18.042969 17.5 19.167969 16.375 19.167969 15 L 19.167969 8.265625 L 14.167969 12.167969 Z M 16.25 2.5 C 15.589844 2.5 14.964844 2.714844 14.449219 3.117188 L 14.167969 3.339844 L 14.167969 10.058594 L 19.167969 6.148438 L 19.167969 5.417969 C 19.167969 3.808594 17.859375 2.5 16.25 2.5 Z M 7.5 4.640625 L 7.5 11.359375 L 10 13.308594 L 12.5 11.359375 L 12.5 4.640625 L 10 6.589844 Z M 0.832031 15 C 0.832031 16.375 1.957031 17.5 3.332031 17.5 L 5.832031 17.5 L 5.832031 12.167969 L 0.832031 8.265625 Z M 3.75 2.5 C 2.140625 2.5 0.832031 3.808594 0.832031 5.417969 L 0.832031 6.148438 L 5.832031 10.058594 L 5.832031 3.339844 L 5.550781 3.117188 C 5.035156 2.714844 4.410156 2.5 3.75 2.5 Z M 3.75 2.5 "/>
</g>
</svg>
