<?xml version="1.0" encoding="UTF-8"?>
<svg xmlns="http://www.w3.org/2000/svg" xmlns:xlink="http://www.w3.org/1999/xlink" viewBox="0 0 20 20" width="20px" height="20px">
<g id="surface27620633">
<rect x="0" y="0" width="20" height="20" style="fill:rgb(13.333334%,14.901961%,16.078432%);fill-opacity:1;stroke:none;"/>
<path style=" stroke:none;fill-rule:nonzero;fill:rgb(94.901961%,95.294118%,95.686275%);fill-opacity:1;" d="M 15.832031 2.5 L 4.167969 2.5 C 3.246094 2.5 2.5 3.246094 2.5 4.167969 L 2.5 15.832031 C 2.5 16.753906 3.246094 17.5 4.167969 17.5 L 15.832031 17.5 C 16.753906 17.5 17.5 16.753906 17.5 15.832031 L 17.5 4.167969 C 17.5 3.246094 16.753906 2.5 15.832031 2.5 Z M 7.5 14.167969 L 5.398438 14.167969 L 5.398438 8.332031 L 7.5 8.332031 Z M 6.410156 7.265625 C 5.769531 7.265625 5.339844 6.835938 5.339844 6.265625 C 5.339844 5.691406 5.769531 5.265625 6.484375 5.265625 C 7.125 5.265625 7.554688 5.691406 7.554688 6.265625 C 7.554688 6.835938 7.125 7.265625 6.410156 7.265625 Z M 15 14.167969 L 12.964844 14.167969 L 12.964844 10.976562 C 12.964844 10.097656 12.421875 9.894531 12.21875 9.894531 C 12.015625 9.894531 11.335938 10.027344 11.335938 10.976562 C 11.335938 11.113281 11.335938 14.167969 11.335938 14.167969 L 9.234375 14.167969 L 9.234375 8.332031 L 11.335938 8.332031 L 11.335938 9.148438 C 11.609375 8.671875 12.152344 8.332031 13.167969 8.332031 C 14.1875 8.332031 15 9.148438 15 10.976562 Z M 15 14.167969 "/>
</g>
</svg>
