<?xml version="1.0" encoding="UTF-8"?>
<svg xmlns="http://www.w3.org/2000/svg" xmlns:xlink="http://www.w3.org/1999/xlink" viewBox="0 0 96 96" width="96px" height="96px">
<g id="surface118698849">
<path style=" stroke:none;fill-rule:nonzero;fill:#86C232;fill-opacity:1;" d="M 32 8 C 25.421875 8 20 13.421875 20 20 L 20 64 L 8 64 L 8 76 C 8 82.578125 13.421875 88 20 88 L 60 88 C 66.578125 88 72 82.578125 72 76 L 72 32 L 88 32 L 88 20 C 88 13.421875 82.578125 8 76 8 Z M 76 16 C 78.261719 16 80 17.738281 80 20 L 80 24 L 72 24 L 72 20 C 72 17.738281 73.738281 16 76 16 Z M 16 72 L 47.960938 72 L 48 76.101562 L 48 76.109375 C 48.019531 77.480469 48.324219 78.773438 48.773438 80 L 20 80 C 17.738281 80 16 78.261719 16 76 Z M 16 72 "/>
</g>
</svg>
