<?xml version="1.0" encoding="UTF-8"?>
<svg xmlns="http://www.w3.org/2000/svg" xmlns:xlink="http://www.w3.org/1999/xlink" viewBox="0 0 96 96" width="96px" height="96px">
<g id="surface26262704">
<path style=" stroke:none;fill-rule:nonzero;fill:#86C232;fill-opacity:1;" d="M 8 12 L 8 72 C 8 78.617188 13.382812 84 20 84 L 76 84 C 82.578125 84 88 78.578125 88 72 L 88 28 L 80 28 L 80 72 C 80 74.261719 78.261719 76 76 76 C 73.792969 76 72 74.203125 72 72 L 72 12 Z M 24 24 L 56 24 L 56 36 L 24 36 Z M 24 48 L 56 48 L 56 56 L 24 56 Z M 24 64 L 56 64 L 56 72 L 24 72 Z M 24 64 "/>
</g>
</svg>
