<?xml version="1.0" encoding="UTF-8"?>
<svg xmlns="http://www.w3.org/2000/svg" xmlns:xlink="http://www.w3.org/1999/xlink" viewBox="0 0 20 20" width="20px" height="20px">
<g id="surface26163154">
<path style=" stroke:none;fill-rule:nonzero;fill:rgb(94.901961%,95.294118%,95.686275%);fill-opacity:1;" d="M 13.921875 1.910156 L 12.746094 3.089844 L 14.65625 5 L 14.167969 5 C 9.113281 5 5 9.113281 5 14.167969 L 5 15 L 6.667969 15 L 6.667969 14.167969 C 6.667969 10.015625 10.015625 6.667969 14.167969 6.667969 L 14.65625 6.667969 L 12.746094 8.578125 L 13.921875 9.757812 L 17.84375 5.832031 Z M 1.667969 6.667969 L 1.667969 15.832031 C 1.667969 17.203125 2.796875 18.332031 4.167969 18.332031 L 15.832031 18.332031 C 17.203125 18.332031 18.332031 17.203125 18.332031 15.832031 L 18.332031 14.167969 L 16.667969 14.167969 L 16.667969 15.832031 C 16.667969 16.304688 16.304688 16.667969 15.832031 16.667969 L 4.167969 16.667969 C 3.695312 16.667969 3.332031 16.304688 3.332031 15.832031 L 3.332031 6.667969 Z M 1.667969 6.667969 "/>
</g>
</svg>
