<?xml version="1.0" encoding="UTF-8"?>
<svg xmlns="http://www.w3.org/2000/svg" xmlns:xlink="http://www.w3.org/1999/xlink" viewBox="0 0 480 480" width="480px" height="480px">
<g id="surface118621692">
<path style=" stroke:none;fill-rule:nonzero;fill:rgb(94.901961%,95.294118%,95.686275%);fill-opacity:1;" d="M 228.476562 40 C 223.597656 40 219.394531 43.539062 218.59375 48.359375 L 212.929688 82.460938 C 203.195312 84.132812 193.785156 86.722656 184.726562 90.078125 L 162.695312 63.359375 C 159.59375 59.578125 154.199219 58.59375 149.960938 61.054688 L 130.039062 72.578125 C 125.800781 75.019531 123.945312 80.167969 125.664062 84.726562 L 137.773438 117.070312 C 130.265625 123.328125 123.328125 130.265625 117.070312 137.773438 L 84.726562 125.664062 C 80.167969 123.945312 75.019531 125.800781 72.578125 130.039062 L 61.054688 149.960938 C 58.59375 154.199219 59.578125 159.59375 63.359375 162.695312 L 90.078125 184.726562 C 86.722656 193.785156 84.132812 203.195312 82.460938 212.929688 L 48.359375 218.59375 C 43.539062 219.414062 40 223.578125 40 228.476562 L 40 251.523438 C 40 256.402344 43.539062 260.605469 48.359375 261.40625 L 82.460938 267.070312 C 84.132812 276.804688 86.722656 286.214844 90.078125 295.273438 L 63.359375 317.304688 C 59.578125 320.40625 58.613281 325.800781 61.054688 330.039062 L 72.578125 349.960938 C 75.019531 354.199219 80.167969 356.054688 84.726562 354.335938 L 117.070312 342.226562 C 123.328125 349.734375 130.265625 356.671875 137.773438 362.929688 L 125.664062 395.273438 C 123.945312 399.855469 125.820312 404.980469 130.039062 407.421875 L 149.960938 418.945312 C 154.199219 421.386719 159.59375 420.402344 162.695312 416.640625 L 184.6875 389.921875 C 193.753906 393.285156 203.183594 395.863281 212.929688 397.539062 L 218.59375 431.640625 C 219.414062 436.460938 223.578125 440 228.476562 440 L 251.523438 440 C 256.402344 440 260.605469 436.460938 261.40625 431.640625 L 267.070312 397.539062 C 276.804688 395.867188 286.214844 393.277344 295.273438 389.921875 L 317.304688 416.640625 C 320.40625 420.421875 325.800781 421.386719 330.039062 418.945312 L 349.960938 407.421875 C 354.199219 404.980469 356.054688 399.832031 354.335938 395.273438 L 342.226562 362.929688 C 349.734375 356.671875 356.671875 349.734375 362.929688 342.226562 L 395.273438 354.335938 C 399.855469 356.054688 404.980469 354.179688 407.421875 349.960938 L 418.945312 330.039062 C 421.386719 325.800781 420.402344 320.40625 416.640625 317.304688 L 389.921875 295.3125 C 393.285156 286.246094 395.863281 276.816406 397.539062 267.070312 L 431.640625 261.40625 C 436.460938 260.585938 440 256.421875 440 251.523438 L 440 228.476562 C 440 223.597656 436.460938 219.394531 431.640625 218.59375 L 397.539062 212.929688 C 395.867188 203.195312 393.277344 193.785156 389.921875 184.726562 L 416.640625 162.695312 C 420.421875 159.59375 421.386719 154.199219 418.945312 149.960938 L 407.421875 130.039062 C 404.980469 125.800781 399.832031 123.945312 395.273438 125.664062 L 362.929688 137.773438 C 356.671875 130.265625 349.734375 123.328125 342.226562 117.070312 L 354.335938 84.726562 C 356.054688 80.148438 354.179688 75.019531 349.960938 72.578125 L 330.039062 61.054688 C 325.800781 58.613281 320.40625 59.597656 317.304688 63.359375 L 295.3125 90.078125 C 286.246094 86.714844 276.816406 84.136719 267.070312 82.460938 L 261.40625 48.359375 C 260.585938 43.539062 256.421875 40 251.523438 40 Z M 220 121.796875 L 220 183.476562 C 196.042969 191.945312 180.019531 214.589844 180 240 C 180 243.683594 180.339844 247.355469 181.015625 250.976562 L 127.578125 281.796875 C 122.765625 268.777344 120 254.738281 120 240 C 120 180.324219 163.105469 131.277344 220 121.796875 Z M 260 121.796875 C 316.894531 131.277344 360 180.324219 360 240 C 360 254.757812 357.207031 268.800781 352.382812 281.835938 L 298.945312 250.9375 C 299.632812 247.332031 299.984375 243.671875 300 240 C 299.964844 214.605469 283.945312 191.980469 260 183.515625 Z M 278.945312 285.546875 L 332.578125 316.523438 C 310.609375 343.121094 277.371094 360 240 360 C 202.628906 360 169.390625 343.121094 147.421875 316.523438 L 201.015625 285.585938 C 211.878906 294.882812 225.703125 299.992188 240 300 C 254.289062 299.972656 268.097656 294.847656 278.945312 285.546875 Z M 278.945312 285.546875 "/>
</g>
</svg>
